<svg xmlns="http://www.w3.org/2000/svg" width="24" height="24" fill="currentColor" viewBox="0 0 24 24">
  <path fill="none" d="M-1-1h26v26H-1z"/>
  <g>
    <g stroke="null">
      <path d="M23.09 21.983H.91c-.466 0-.831.382-.831.825s.385.825.83.825H23.11c.467 0 .832-.382.832-.825s-.386-.825-.852-.825zM.079 14.677l-.02 3.925c0 .221.08.442.243.603a.815.815 0 00.588.242l3.933-.02c.223 0 .426-.08.588-.242L18.995 5.7a.846.846 0 000-1.187L15.102.608a.861.861 0 00-1.196 0l-2.717 2.717L.322 14.093a.893.893 0 00-.243.584zM14.514 2.379l2.737 2.717-1.54 1.53-2.738-2.717 1.541-1.53zM1.761 15.04l10.016-9.943 2.737 2.718-10.016 9.922-2.757.02.02-2.717z"/>
    </g>
  </g>
</svg>
